# xmcd CD database file
#
# Track frame offsets:
#	150
#	24857
#	65134
#	82244
#	100460
#	120616
#	136113
#	150448
#	180039
#	211592
#
# Disc length: 3089 seconds
#
# Revision: 0
# Processed by: cddbd v1.5.2PL0 Copyright (c) Steve Scherf et al.
# Submitted via: CDex 1.51
#
DISCID=760c0f0a
DTITLE=Jeff Healey - Mess of Blues
DYEAR=2008
DGENRE=Blues
TTITLE0=I'm Torn Down
TTITLE1=How Blue Can You Get
TTITLE2=Sugar Sweet 
TTITLE3=Jambalaya 
TTITLE4=The Weight
TTITLE5=Mess O' Blues
TTITLE6=It's Only Money
TTITLE7=Like A Hurricane
TTITLE8=Sittin' On Top of The World
TTITLE9=Shake, Rattle and Roll
EXTD=YEAR: 2008
EXTT0=
EXTT1=
EXTT2=
EXTT3=
EXTT4=
EXTT5=
EXTT6=
EXTT7=
EXTT8=
EXTT9=
PLAYORDER=
